<?xml version="1.0" encoding="iso-8859-1"?>
<!-- Uploaded to: SVG Repo, www.svgrepo.com, Generator: SVG Repo Mixer Tools -->
<!DOCTYPE svg PUBLIC "-//W3C//DTD SVG 1.1//EN" "http://www.w3.org/Graphics/SVG/1.1/DTD/svg11.dtd">
<svg fill="#000000" height="800px" width="800px" version="1.1" id="Capa_1" xmlns="http://www.w3.org/2000/svg" xmlns:xlink="http://www.w3.org/1999/xlink" 
	 viewBox="0 0 494.386 494.386" xml:space="preserve">
<g>
	<path d="M462.174,468.279l-49.615-148.619h7.886c23.484,0,42.59-19.106,42.59-42.591c0-23.485-19.105-42.592-42.59-42.592h-21.858
		v-38.285h22.285c10.407,0,18.874-8.466,18.874-18.872c0-10.406-8.467-18.872-18.874-18.872h-22.285v-28.178
		c0-39.89-15.453-73.363-44.689-96.801C326.976,11.887,289.081,0,247.196,0c-41.886,0-79.78,11.887-106.703,33.471
		c-29.235,23.438-44.688,56.911-44.688,96.801v28.178H73.521c-10.406,0-18.872,8.466-18.872,18.872
		c0,10.406,8.466,18.872,18.872,18.872h24.981v38.284H73.948c-23.485,0-42.591,19.107-42.591,42.592
		c0,23.485,19.107,42.591,42.591,42.591h7.883L32.217,468.279c-0.018,0.053-0.034,0.106-0.05,0.16
		c-1.512,5.201-0.908,10.679,1.7,15.426c2.608,4.748,6.91,8.194,12.11,9.706c1.877,0.546,3.79,0.816,5.691,0.816
		c3.368,0,6.701-0.848,9.735-2.515c4.722-2.595,8.158-6.865,9.683-12.03l20.074-60.586h312.071l20.074,60.586
		c1.523,5.164,4.96,9.434,9.683,12.029c3.035,1.667,6.368,2.516,9.737,2.516c1.901,0,3.814-0.271,5.69-0.816
		c10.734-3.121,16.929-14.395,13.808-25.131C462.208,468.385,462.192,468.332,462.174,468.279z M390.086,234.478l-250.363-0.001
		c0.884-0.779,1.454-1.906,1.454-3.177v-31.93c0-1.271-0.569-2.398-1.453-3.177h250.362V234.478z M104.306,130.271
		C104.306,46.153,176.072,8.5,247.196,8.5c71.124,0,142.89,37.653,142.89,121.771v28.178h-24.492V136.62
		c0-31.011-12.153-56.449-35.146-73.565c-20.841-15.514-49.629-23.714-83.252-23.714c-2.347,0-4.25,1.903-4.25,4.25
		c0,2.347,1.903,4.25,4.25,4.25c53.128,0,109.898,23.322,109.898,88.779v21.829H141.177v-31.794c0-2.347-1.903-4.25-4.25-4.25
		c-2.347,0-4.25,1.903-4.25,4.25v31.794h-28.371V130.271z M63.149,177.321c0-5.719,4.653-10.372,10.372-10.372h347.351
		c5.721,0,10.374,4.653,10.374,10.372c0,5.719-4.653,10.372-10.374,10.372H73.521C67.802,187.693,63.149,183.04,63.149,177.321z
		 M107.002,196.193h27.127c-0.884,0.779-1.453,1.906-1.453,3.177v31.93c0,1.271,0.569,2.398,1.454,3.177h-27.128V196.193z
		 M39.857,277.07c0-18.798,15.294-34.092,34.091-34.092l320.388,0.001l0,0l0,0h26.108c17.788,0,32.43,13.699,33.951,31.1H293.4
		c-2.348,0-4.25,1.903-4.25,4.25s1.902,4.25,4.25,4.25h160.684c-2.642,16.187-16.718,28.583-33.639,28.583H306.809
		c-2.347,0-4.25,1.903-4.25,4.25c0,30.527-24.836,55.363-55.363,55.363c-30.527,0-55.363-24.836-55.363-55.363
		c0-2.347-1.903-4.25-4.25-4.25H73.948C55.15,311.161,39.857,295.868,39.857,277.07z M183.473,319.661
		c2.193,33.242,29.936,59.613,63.723,59.613c33.787,0,61.53-26.372,63.723-59.613h59.314l22.118,66.755h-290.31l22.118-66.755
		H183.473z M62.995,477.238c-0.017,0.05-0.032,0.1-0.047,0.15c-0.879,3.021-2.88,5.519-5.638,7.034
		c-2.757,1.514-5.939,1.864-8.96,0.986c-3.021-0.878-5.519-2.88-7.034-5.637c-1.502-2.734-1.859-5.887-1.009-8.885l50.485-151.226
		h24.413L62.995,477.238z M93.977,410.755l5.248-15.839h295.942l5.248,15.839H93.977z M446.043,485.408
		c-3.021,0.878-6.204,0.529-8.962-0.987c-2.757-1.515-4.759-4.013-5.637-7.033c-0.015-0.05-0.03-0.101-0.047-0.15l-52.211-157.577
		h24.411l50.485,151.226C455.846,477.1,452.252,483.603,446.043,485.408z"/>
	<path d="M77.716,262.908c-8.502,0-15.419,6.917-15.419,15.42c0,8.502,6.917,15.42,15.419,15.42c8.502,0,15.42-6.917,15.42-15.42
		C93.136,269.825,86.218,262.908,77.716,262.908z M77.716,285.248c-3.815,0-6.919-3.104-6.919-6.92c0-3.816,3.104-6.92,6.919-6.92
		c3.815,0,6.92,3.104,6.92,6.92C84.636,282.143,81.531,285.248,77.716,285.248z"/>
</g>
</svg>