<?xml version="1.0" encoding="iso-8859-1"?>
<!-- Uploaded to: SVG Repo, www.svgrepo.com, Generator: SVG Repo Mixer Tools -->
<svg fill="#000000" height="800px" width="800px" version="1.1" id="Layer_1" xmlns="http://www.w3.org/2000/svg" xmlns:xlink="http://www.w3.org/1999/xlink" 
	 viewBox="0 0 512.003 512.003" xml:space="preserve">
<g transform="translate(0 -1)">
	<g>
		<g>
			<path d="M486.402,173.24v-28.382c14.686-3.814,25.6-17.067,25.6-32.922c0-18.825-15.309-34.133-34.133-34.133
				s-34.133,15.309-34.133,34.133c0,15.855,10.914,29.107,25.6,32.922v28.382c-9.907,3.533-17.067,12.919-17.067,24.03v8.533H59.735
				v-8.533c0-11.11-7.159-20.497-17.067-24.03v-28.382c14.686-3.814,25.6-17.067,25.6-32.922c0-18.825-15.309-34.133-34.133-34.133
				c-18.825,0-34.133,15.309-34.133,34.133c0,15.855,10.914,29.107,25.6,32.922v28.382c-9.907,3.533-17.067,12.919-17.067,24.03
				v307.2c0,4.71,3.814,8.533,8.533,8.533h34.133h409.6h34.133c4.719,0,8.533-3.823,8.533-8.533v-307.2
				C503.468,186.16,496.309,176.773,486.402,173.24z M332.802,222.87h51.2v166.443c-15.445-4.42-32.904-7.74-51.2-9.89V222.87z
				 M264.535,222.87h51.2v154.914c-11.307-0.862-22.767-1.314-34.133-1.314c-5.76,0-11.401,0.247-17.067,0.452V222.87z
				 M196.268,222.87h51.2v155.017c-18.125,1.357-35.345,3.797-51.2,7.253V222.87z M128.002,222.87h51.2V370.19
				c-9.685-6.775-21.444-10.786-34.133-10.786c-5.931,0-11.656,0.896-17.067,2.517V222.87z M59.735,222.87h51.2V370.19
				c-15.454,10.803-25.6,28.706-25.6,48.947c0,16.708,6.912,31.812,18.014,42.667H59.735V222.87z M452.268,495.937H59.735V478.87
				h107.853h228.275h56.405V495.937z M452.268,461.803h-22.69c11.145-9.225,14.157-18.398,14.157-25.6
				c0-17.451-16.922-31.275-42.667-41.216V222.87h51.2V461.803z"/>
			<path d="M380.035,118.149c1.604,1.613,3.78,2.5,6.033,2.5c0.341,0,0.691-0.017,1.041-0.06c2.611-0.324,4.924-1.826,6.272-4.079
				l12.493-20.804L366.28,56.112l-20.804,12.484c-2.244,1.348-3.755,3.669-4.07,6.272c-0.324,2.611,0.572,5.222,2.432,7.074
				L380.035,118.149z"/>
			<path d="M447.358,50.826l7.398,7.398c0.794,0.794,1.741,1.417,2.782,1.852c1.041,0.435,2.15,0.657,3.26,0.657h42.667
				c4.719,0,8.533-3.814,8.533-8.533c0-4.71-3.814-8.533-8.533-8.533h-39.134l-5.094-5.103c2.389-3.328,2.236-7.927-0.76-10.923
				L434.345,3.5c-1.604-1.596-3.772-2.5-6.033-2.5c-2.27,0-4.437,0.905-6.033,2.5l-42.24,42.24l36.207,36.207L447.358,50.826z"/>
		</g>
	</g>
</g>
</svg>