<?xml version="1.0" encoding="iso-8859-1"?>
<!-- Uploaded to: SVG Repo, www.svgrepo.com, Generator: SVG Repo Mixer Tools -->
<!DOCTYPE svg PUBLIC "-//W3C//DTD SVG 1.1//EN" "http://www.w3.org/Graphics/SVG/1.1/DTD/svg11.dtd">
<svg fill="#000000" height="800px" width="800px" version="1.1" id="Capa_1" xmlns="http://www.w3.org/2000/svg" xmlns:xlink="http://www.w3.org/1999/xlink" 
	 viewBox="0 0 60 60" xml:space="preserve">
<g>
	<path d="M14.5,37v20.06c0,1.621,1.319,2.94,2.94,2.94H42.56c1.621,0,2.94-1.319,2.94-2.94V37H14.5z M21.5,48c0,1.654-1.346,3-3,3
		c-0.553,0-1-0.447-1-1s0.447-1,1-1c0.552,0,1-0.448,1-1v-6c0-0.552-0.448-1-1-1c-0.553,0-1-0.447-1-1s0.447-1,1-1
		c1.654,0,3,1.346,3,3V48z"/>
	<path d="M45.5,35V2.94C45.5,1.319,44.181,0,42.56,0H17.44c-1.621,0-2.94,1.319-2.94,2.94V35H45.5z M28.5,6h2c0.553,0,1,0.447,1,1
		s-0.447,1-1,1h-2c-0.553,0-1-0.447-1-1S27.947,6,28.5,6z M18.5,23c-0.553,0-1-0.447-1-1s0.447-1,1-1c1.654,0,3,1.346,3,3v6
		c0,1.654-1.346,3-3,3c-0.553,0-1-0.447-1-1s0.447-1,1-1c0.552,0,1-0.448,1-1v-6C19.5,23.448,19.052,23,18.5,23z"/>
</g>
</svg>