<?xml version="1.0" encoding="iso-8859-1"?>
<!-- Uploaded to: SVG Repo, www.svgrepo.com, Generator: SVG Repo Mixer Tools -->
<svg height="800px" width="800px" version="1.1" id="Layer_1" xmlns="http://www.w3.org/2000/svg" xmlns:xlink="http://www.w3.org/1999/xlink" 
	 viewBox="0 0 512 512" xml:space="preserve">
<path style="fill:#8C5549;" d="M387.337,312.568c-31.717,36.969-78.774,60.388-131.305,60.388
	c-94.995,0-172.092-76.587-172.939-171.386h345.876c-0.291,32.656-9.631,63.151-25.634,89.098"/>
<g style="opacity:0.15;">
	<path style="fill:#202020;" d="M108.463,201.572H83.094c0.847,94.797,77.943,171.386,172.939,171.386
		c4.24,0,8.442-0.168,12.606-0.47C179.595,365.993,109.271,292.087,108.463,201.572z"/>
</g>
<path style="fill:#A4A4A5;" d="M428.991,200.9c0,26.228-77.437,47.5-172.958,47.5c-95.524,0-172.958-21.273-172.958-47.5
	s77.435-47.5,172.958-47.5C351.554,153.4,428.991,174.673,428.991,200.9z"/>
<g>
	<path style="fill:#DCE0E2;" d="M490.277,201.251h-36.686v26.435h36.686c10.262,0,13.626-5.164,13.626-11.539v-3.354
		C503.904,206.419,500.539,201.251,490.277,201.251z"/>
	<path style="fill:#DCE0E2;" d="M21.724,201.251h36.685v26.435H21.724c-10.262,0-13.628-5.164-13.628-11.539v-3.354
		C8.096,206.419,11.462,201.251,21.724,201.251z"/>
</g>
<g>
	<path style="fill:#202020;" d="M490.277,193.155h-36.686c-4.472,0-8.096,3.624-8.096,8.096v5.122h-8.552
		c0.055-1.575,0.109-3.151,0.123-4.73c0-0.033-0.004-0.066-0.004-0.098c0.007-0.215,0.025-0.427,0.025-0.644
		c0-36.5-91.082-55.596-181.055-55.596S74.978,164.4,74.978,200.9c0,0.214,0.018,0.424,0.025,0.638c0,0.036-0.004,0.071-0.004,0.107
		c0.014,1.579,0.051,3.156,0.106,4.729h-8.599v-5.122c0-4.472-3.625-8.096-8.096-8.096H21.724C5.707,193.155,0,203.3,0,212.794
		v3.353c0,9.492,5.707,19.635,21.724,19.635h36.685c4.471,0,8.096-3.624,8.096-8.096v-5.12h9.885
		c4.958,40.08,23.065,77.133,52.168,105.996c16.261,16.126,35.052,28.791,55.468,37.642l-45.564,96.758
		c-1.905,4.045-0.171,8.869,3.875,10.773c1.115,0.525,2.289,0.774,3.444,0.774c3.038,0,5.95-1.719,7.33-4.649l46.089-97.873
		c16.142,5.319,33.104,8.347,50.484,8.943v122.445c0,4.472,3.624,8.096,8.096,8.096c4.471,0,8.096-3.624,8.096-8.096V380.786
		c17.192-0.933,33.995-4.312,49.966-9.901l46.607,98.976c1.38,2.931,4.292,4.649,7.33,4.649c1.155,0,2.33-0.248,3.444-0.774
		c4.045-1.905,5.781-6.727,3.875-10.773l-46.199-98.11c23.748-10.788,45.165-26.708,62.585-47.012
		c2.911-3.394,2.521-8.505-0.873-11.417c-3.396-2.914-8.508-2.518-11.417,0.873c-29.238,34.08-70.831,54.612-115.318,57.262v-36.162
		c0-4.472-3.625-8.096-8.096-8.096c-4.472,0-8.096,3.624-8.096,8.096v36.329c-78.657-3.02-143.739-61.857-156.299-137.921
		c2.798,1.76,5.878,3.444,9.215,5.05c0.34,0.194,0.69,0.364,1.049,0.505c33.965,15.931,93.412,24.135,152.384,24.135
		c65.476,0,131.528-10.117,162.648-29.691c-3.461,21.088-10.972,41.351-22.237,59.613c-2.347,3.806-1.165,8.794,2.64,11.142
		c3.805,2.347,8.794,1.165,11.142-2.64c13.593-22.041,22.213-46.729,25.418-72.353h9.85v5.12c0,4.472,3.624,8.096,8.096,8.096
		h36.686c16.017,0,21.723-10.143,21.723-19.635v-3.353C512,203.3,506.294,193.155,490.277,193.155z M50.311,219.591H21.724
		c-5.531,0-5.531-1.444-5.531-3.444v-3.353c0-2.001,0-3.446,5.531-3.446h28.588v10.242H50.311z M261.635,240.276l31.556-30.608
		h29.85l-30.481,29.566C282.487,239.833,272.146,240.184,261.635,240.276z M210.248,238.61l29.837-28.942h29.849l-31.337,30.395
		C228.942,239.797,219.465,239.31,210.248,238.61z M189.486,236.621c-9.153-1.064-17.956-2.353-26.323-3.855l23.814-23.099h29.851
		l-25.982,25.203C190.298,235.401,189.85,235.994,189.486,236.621z M316.492,164.508l-29.864,28.967h-29.849l32.081-31.119
		C298.321,162.86,307.557,163.581,316.492,164.508z M362.202,171.684l-22.467,21.793h-29.85l27.196-26.38
		C345.889,168.408,354.292,169.94,362.202,171.684z M402.194,184.405l-9.351,9.07h-29.851l17.615-17.087
		C389.251,178.955,396.426,181.678,402.194,184.405z M416.553,193.475h-0.452l0.219-0.213
		C416.397,193.334,416.477,193.405,416.553,193.475z M346.298,209.668h29.85l-20.078,19.474c-0.794,0.771-1.396,1.665-1.806,2.623
		c-11.298,2.202-23.473,4.002-36.284,5.371L346.298,209.668z M399.406,209.668h15.611c-5.738,4.697-15.789,9.868-30.659,14.596
		L399.406,209.668z M266.399,161.584l-32.878,31.892h-29.851l32.649-31.669c6.495-0.203,13.073-0.31,19.713-0.31
		C259.506,161.496,262.962,161.528,266.399,161.584z M211.748,163.081l-31.335,30.394h-29.847l27.683-26.853
		C188.908,165.119,200.126,163.932,211.748,163.081z M149.75,171.707l-22.442,21.768H95.512c6.234-5.837,19.344-12.58,40.364-18.354
		C140.301,173.906,144.937,172.77,149.75,171.707z M97.048,209.668h13.567l-5.482,5.317
		C101.841,213.178,99.153,211.392,97.048,209.668z M121.128,222.029l12.745-12.361h29.847l-19.695,19.104
		c-2.784-0.671-5.505-1.368-8.148-2.093C130.433,225.184,125.53,223.623,121.128,222.029z M495.808,216.147
		c0,1.999,0,3.443-5.53,3.443h-28.589v-10.242h28.589c5.53,0,5.53,1.445,5.53,3.446V216.147z"/>
	<path style="fill:#202020;" d="M159.673,121.065c-3.234,3.088-3.351,8.213-0.263,11.447c1.591,1.665,3.722,2.503,5.856,2.503
		c2.01,0,4.023-0.744,5.591-2.241c9.782-9.343,22.489-33.794,0.562-59.449c-7.265-8.501-9.693-16.738-7.213-24.481
		c1.931-6.03,6.175-9.872,6.342-10.02c3.367-2.9,3.771-7.977,0.892-11.371c-2.891-3.41-8-3.832-11.411-0.939
		c-1.187,1.007-11.631,10.274-12.855,25.507c-0.87,10.833,3.147,21.539,11.936,31.825
		C176.157,103.792,161.373,119.392,159.673,121.065z"/>
	<path style="fill:#202020;" d="M221.349,97.002c-3.234,3.088-3.351,8.214-0.262,11.447c1.591,1.666,3.721,2.503,5.855,2.503
		c2.01,0,4.023-0.744,5.591-2.241c9.782-9.344,22.489-33.795,0.562-59.451c-7.266-8.501-9.693-16.737-7.213-24.479
		c1.929-6.02,6.162-9.859,6.341-10.02c3.368-2.898,3.772-7.976,0.893-11.371c-2.891-3.411-8-3.831-11.411-0.939
		c-1.187,1.007-11.632,10.274-12.855,25.509c-0.87,10.831,3.147,21.538,11.936,31.823C237.833,79.728,223.049,95.328,221.349,97.002
		z"/>
	<path style="fill:#202020;" d="M283.025,97.002c-3.233,3.088-3.351,8.214-0.262,11.447c1.591,1.666,3.721,2.503,5.856,2.503
		c2.009,0,4.023-0.744,5.592-2.241c9.782-9.344,22.489-33.795,0.562-59.45c-7.265-8.501-9.693-16.737-7.213-24.48
		c1.931-6.03,6.175-9.872,6.342-10.021c3.366-2.898,3.77-7.976,0.892-11.37c-2.893-3.409-7.999-3.83-11.411-0.939
		c-1.187,1.007-11.631,10.274-12.855,25.509c-0.87,10.831,3.147,21.538,11.937,31.823C299.51,79.728,284.725,95.328,283.025,97.002z
		"/>
	<path style="fill:#202020;" d="M344.7,121.065c-3.233,3.088-3.35,8.213-0.262,11.447c1.591,1.665,3.721,2.503,5.856,2.503
		c2.009,0,4.023-0.744,5.592-2.241c9.782-9.343,22.489-33.794,0.562-59.45c-7.266-8.501-9.693-16.737-7.213-24.48
		c1.931-6.03,6.175-9.872,6.342-10.021c3.366-2.898,3.77-7.976,0.892-11.37c-2.893-3.409-8-3.83-11.411-0.939
		c-1.187,1.007-11.631,10.274-12.855,25.509c-0.87,10.831,3.147,21.538,11.937,31.823
		C361.184,103.792,346.402,119.392,344.7,121.065z"/>
</g>
</svg>