<svg xmlns="http://www.w3.org/2000/svg"  viewBox="0 0 100 100" width="100px" height="100px"><path d="M55.08,38.913c-0.067,0.02-0.133,0.04-0.2,0.06c0,0.37-0.153,0.929,0.028,1.074c0.576,0.463,0.259,0.851,0.079,1.294 c-0.048,0.118-0.081,0.319-0.019,0.384c0.069,0.073,0.265,0.072,0.389,0.039c0.29-0.077,0.57-0.193,0.904-0.31 c-0.161-0.199-0.296-0.366-0.434-0.537c0.285-0.442,0.28-0.435-0.113-0.725C55.63,40.13,55.592,40,55.542,39.896 C55.386,39.57,55.234,39.241,55.08,38.913z"/><path fill="#444445" d="M90.523,15.503c-0.141-0.142-0.332-0.222-0.532-0.222l-12.795-0.016c0,0,0,0-0.001,0 c-0.199,0-0.39,0.079-0.53,0.22c-0.141,0.141-0.22,0.332-0.22,0.531l0.001,0.87c0.006,4.568,0.022,16.367,0.026,22.667v0.64 c0.001,0.299,0.179,0.567,0.453,0.686c0.274,0.117,0.592,0.062,0.81-0.142c0.54-0.506,1.594-0.324,1.944-0.262 c0.041,0.007,0.079,0.024,0.113,0.052c0.27,0.218,0.652,0.221,0.927,0.01c0.427-0.328,0.926-0.487,1.526-0.487 c0.238,0,0.461,0.024,0.659,0.054c0.125,0.019,0.214,0.122,0.214,0.247c0,0.08-0.003,0.159-0.006,0.236 c-0.014,0.301,0.175,0.565,0.447,0.695c0.098,0.046,0.204,0.068,0.312,0.068c0.192,0,0.385-0.07,0.529-0.198 c0.066-0.035,0.146-0.042,0.22-0.011c0.203,0.08,0.429,0.08,0.746,0.07c0.098-0.002,0.21-0.004,0.333-0.001 c0.39,0.06,0.728-0.271,0.774-0.66c0.007-0.062,0.038-0.118,0.084-0.159c0.038-0.033,0.08-0.064,0.123-0.098 c0.144-0.109,0.242-0.268,0.279-0.443l0.037-0.166c0.027-0.103,0.125-0.2,0.276-0.185l0.156,0.013 c0.343,0.07,0.726-0.188,0.871-0.503c0.078-0.124,0.197-0.238,0.356-0.339c0.03-0.019,0.132-0.092,0.159-0.115 c0.288-0.176,0.423-0.521,0.33-0.846s-0.406-0.568-0.728-0.544l-4.966,0.048c-0.016-0.004-0.065-0.028-0.118-0.08 c-0.046-0.046-0.073-0.11-0.073-0.177l0.001-4.83c0-0.066,0.026-0.13,0.073-0.176c0.048-0.048,0.111-0.074,0.177-0.074 l6.183,0.004l0,0c0.2,0,0.391-0.08,0.532-0.222s0.22-0.333,0.218-0.533l-0.026-4.037c-0.003-0.412-0.338-0.745-0.75-0.745l0,0 c-1.451,0.001-4.131,0.004-5.544,0.02c-0.361,0.004-0.525,0.02-0.574,0.025c-0.07,0.007-0.145-0.015-0.195-0.06 c-0.058-0.052-0.093-0.122-0.093-0.188l-0.001-5.08c0-0.115,0.116-0.232,0.218-0.248c0.041-0.003,0.211-0.014,0.715-0.006 c1.527,0.025,4.331,0.039,5.773,0.026c0.41-0.003,0.741-0.335,0.744-0.744l0.03-4.051C90.742,15.837,90.664,15.645,90.523,15.503z"/><path fill="#444445" d="M69.927,15.507c-0.145-0.144-0.32-0.195-0.546-0.218c-1.592,0.038-2.978,0.058-4.341,0.054 c-2.048-0.005-6.493-0.056-8.491-0.08c-0.243-0.007-0.394,0.075-0.536,0.216c-0.143,0.141-0.223,0.332-0.224,0.532l-0.04,20.063 c0,0.157,0,0.314,0.009,0.469c0.014,0.206,0.111,0.396,0.27,0.528c0.172,0.143,0.224,0.296,0.238,0.4 c0.019,0.143-0.01,0.364-0.258,0.609c-0.28,0.276-0.271,0.617-0.262,1.011c0.007,0.286,0.012,0.572,0.015,0.858 c0.003,0.289,0.172,0.551,0.434,0.673c0.262,0.121,0.571,0.083,0.794-0.104c0.031-0.025,0.083-0.056,0.157-0.056h1.782 c0.074,0,0.127,0.031,0.16,0.058c0.229,0.188,0.55,0.225,0.814,0.089c0.771-0.389,1.676-0.557,2.262-0.403 c0.095,0.023,0.167,0.102,0.183,0.194c0.013,0.078,0.03,0.156,0.053,0.257c0.024,0.109,0.053,0.233,0.071,0.37 c0.041,0.295,0.252,0.537,0.538,0.619c0.068,0.019,0.137,0.028,0.205,0.028c0.22,0,0.433-0.097,0.578-0.272 c0.039-0.046,0.075-0.082,0.094-0.101c0.188-0.173,0.316-0.169,0.356-0.161c0.223,0.017,0.444,0.043,0.664,0.073 c0.215,0.024,0.432-0.04,0.595-0.183c0.164-0.143,0.257-0.354,0.257-0.57c0-0.065,0.025-0.128,0.072-0.176 c0.125-0.128,0.201-0.298,0.212-0.477c0.005-0.075,0.05-0.178,0.164-0.219c0.199-0.072,0.367-0.092,0.502-0.055 c0.193,0.052,0.398,0.025,0.571-0.073c0.173-0.1,0.3-0.264,0.352-0.456c0.062-0.232,0.16-0.345,0.387-0.443 c0.327-0.143,0.508-0.495,0.434-0.845c-0.074-0.346-0.38-0.593-0.733-0.593c-0.002,0-0.005,0-0.008,0l-4.943,0.059 c-0.012-0.003-0.058-0.024-0.115-0.081c-0.047-0.046-0.074-0.111-0.074-0.178v-4.814c0-0.065,0.027-0.13,0.074-0.178 c0.047-0.047,0.109-0.072,0.177-0.072l6.208,0.021c0.001,0,0.001,0,0.002,0c0.413,0,0.748-0.333,0.75-0.746l0.022-3.959 c0.002-0.413-0.33-0.75-0.743-0.754l-6.203-0.057c-0.135-0.001-0.246-0.112-0.248-0.247c0-0.001-0.04-4.144-0.04-5.049 c0-0.138,0.112-0.25,0.25-0.25l2.711-0.002c1.281-0.002,2.565-0.002,3.848,0.007c0.219,0.026,0.395-0.078,0.537-0.221 s0.221-0.337,0.219-0.538c-0.017-1.46-0.016-2.775,0.003-4.016C70.152,15.847,70.072,15.65,69.927,15.507z"/><path fill="#444445" d="M86.927,53.507c-0.145-0.144-0.32-0.195-0.546-0.218c-1.592,0.038-2.978,0.058-4.341,0.054 c-2.048-0.005-6.493-0.056-8.491-0.08c-0.243-0.007-0.394,0.075-0.536,0.216c-0.143,0.141-0.223,0.332-0.224,0.532l-0.04,20.063 c0,0.157,0,0.314,0.009,0.469c0.014,0.206,0.111,0.396,0.27,0.528c0.172,0.143,0.224,0.296,0.238,0.4 c0.019,0.143-0.01,0.364-0.258,0.609c-0.28,0.276-0.271,0.617-0.262,1.011c0.007,0.286,0.012,0.572,0.015,0.858 c0.003,0.289,0.172,0.551,0.434,0.673c0.262,0.121,0.571,0.083,0.794-0.104c0.031-0.025,0.083-0.056,0.157-0.056h1.782 c0.074,0,0.127,0.031,0.16,0.058c0.229,0.188,0.55,0.225,0.814,0.089c0.771-0.389,1.676-0.557,2.262-0.403 c0.095,0.023,0.167,0.102,0.183,0.194c0.013,0.078,0.03,0.156,0.053,0.257c0.024,0.109,0.053,0.233,0.071,0.37 c0.041,0.295,0.252,0.537,0.538,0.619c0.068,0.019,0.137,0.028,0.205,0.028c0.22,0,0.433-0.097,0.578-0.272 c0.039-0.046,0.075-0.082,0.094-0.101c0.188-0.173,0.316-0.169,0.356-0.161c0.223,0.017,0.444,0.043,0.664,0.073 c0.215,0.024,0.432-0.04,0.595-0.183c0.164-0.143,0.257-0.354,0.257-0.57c0-0.065,0.025-0.128,0.072-0.176 c0.125-0.128,0.201-0.298,0.212-0.477c0.005-0.075,0.05-0.178,0.164-0.219c0.199-0.072,0.367-0.092,0.502-0.055 c0.193,0.052,0.398,0.025,0.571-0.073c0.173-0.1,0.3-0.264,0.352-0.456c0.062-0.232,0.16-0.345,0.387-0.443 c0.327-0.143,0.508-0.495,0.434-0.845c-0.074-0.346-0.38-0.593-0.733-0.593c-0.002,0-0.005,0-0.008,0l-4.943,0.059 c-0.012-0.003-0.058-0.024-0.115-0.081c-0.047-0.046-0.074-0.111-0.074-0.178v-4.814c0-0.065,0.027-0.13,0.074-0.178 c0.047-0.047,0.109-0.072,0.177-0.072l6.208,0.021c0.001,0,0.001,0,0.002,0c0.413,0,0.748-0.333,0.75-0.746l0.022-3.959 c0.002-0.413-0.33-0.75-0.743-0.754l-6.203-0.057c-0.135-0.001-0.246-0.112-0.248-0.247c0-0.001-0.04-4.144-0.04-5.049 c0-0.138,0.112-0.25,0.25-0.25l2.711-0.002c1.281-0.002,2.565-0.002,3.848,0.007c0.219,0.026,0.395-0.078,0.537-0.221 s0.221-0.337,0.219-0.538c-0.017-1.46-0.016-2.775,0.003-4.016C87.152,53.847,87.072,53.65,86.927,53.507z"/><path fill="#444445" d="M51.669,38.691L46.3,31.862c1.681-0.609,3.04-1.743,4.051-3.384c1.21-1.964,1.59-4.228,1.162-6.919 c-0.508-3.194-2.435-5.508-5.573-6.692c-1.478-0.558-3.107-0.818-4.977-0.803c-2.979,0.027-6.012,0.003-8.946-0.02l-1.575-0.013 c-0.478-0.036-0.854,0.136-1.125,0.416c-0.408,0.419-0.389,0.957-0.383,1.134c0.014,0.391,0.011,0.78,0.008,1.171l-0.003,3.393 c-0.001,7.282-0.003,14.566,0.009,21.851c0.001,0.436,0.22,0.752,0.35,0.941l0.056,0.084c0.172,0.319,0.502,0.521,0.864,0.526 c0.38-0.03,0.699-0.185,0.881-0.496l0.071-0.11c0.097-0.146,0.229-0.347,0.311-0.607c0.103-0.328,0.088-0.636,0.077-0.86 c0-0.012-0.001-0.024-0.002-0.036c0.135-0.088,0.245-0.207,0.323-0.345c0.377-0.017,0.758-0.01,1.205-0.004 c0.036,0.188,0.122,0.357,0.241,0.484c0.172,0.24,0.441,0.393,0.736,0.415l0.473,0.037c0.033,0.521,0.468,0.935,0.998,0.935h0.654 l0.304,0.346c0.194,0.221,0.469,0.34,0.751,0.34c0.118,0,0.238-0.021,0.353-0.064c0.389-0.146,0.647-0.52,0.647-0.936 c0-1.534-0.022-3.716-0.043-5.728c-0.007-0.646-0.013-1.318-0.019-1.953c0.086,0.13,0.169,0.256,0.246,0.375 c0.436,0.672,0.866,1.347,1.296,2.021c0.552,0.866,1.104,1.731,1.667,2.591c0.231,0.354,0.575,0.51,0.781,0.604 c0.035,0.017,0.07,0.03,0.101,0.049c0.254,0.148,0.562,0.181,0.838,0.081c0.189-0.066,0.352-0.188,0.47-0.345 c0.029,0.161,0.078,0.323,0.156,0.483c0.243,0.503,0.662,0.822,1.032,1.104c0.126,0.096,0.258,0.195,0.384,0.308 c0.295,0.261,0.715,0.323,1.073,0.163c0.282-0.127,0.485-0.375,0.559-0.667c0.183,0.239,0.471,0.393,0.794,0.393l0.208-0.001 c0.291,0,0.555-0.125,0.739-0.326c0.156,0.078,0.335,0.116,0.511,0.122c0.319,0.009,0.638-0.17,0.836-0.411 c0.182,0.034,0.376,0.011,0.553-0.045c0.294-0.094,0.548-0.359,0.654-0.648c0.068-0.139,0.167-0.338,0.203-0.589 c0.227-0.099,0.414-0.28,0.517-0.514C51.947,39.375,51.898,38.982,51.669,38.691z M41.768,27.671 c-1.051,0.514-2.288,0.641-3.466,0.641c-0.337,0-0.669-0.011-0.991-0.025c-1.056-0.044-1.048-0.626-1.009-3.427 c0.005-0.357,0.01-0.687,0.01-0.925v-0.001l-0.003-3.351c0-0.391,0.225-0.745,0.579-0.909c0.19-0.088,0.408-0.121,0.805-0.121 c1.274,0.003,2.628,0.054,3.963,0.623c1.53,0.653,2.324,1.913,2.361,3.745C44.051,25.638,43.273,26.935,41.768,27.671z"/><path fill="#444445" d="M68.669,76.691L63.3,69.862c1.681-0.609,3.04-1.743,4.051-3.384c1.21-1.964,1.59-4.228,1.162-6.919 c-0.508-3.194-2.435-5.508-5.573-6.692c-1.478-0.558-3.107-0.818-4.977-0.803c-2.979,0.027-6.012,0.003-8.946-0.02l-1.575-0.013 c-0.478-0.036-0.854,0.136-1.125,0.416c-0.408,0.419-0.389,0.957-0.383,1.134c0.014,0.391,0.011,0.78,0.008,1.171l-0.003,3.393 c-0.001,7.282-0.003,14.566,0.009,21.851c0.001,0.436,0.22,0.752,0.35,0.941l0.056,0.084c0.172,0.319,0.502,0.521,0.864,0.526 c0.38-0.03,0.699-0.185,0.881-0.496l0.071-0.11c0.097-0.146,0.229-0.347,0.311-0.607c0.103-0.328,0.088-0.636,0.077-0.86 c0-0.012-0.001-0.024-0.002-0.036c0.135-0.088,0.245-0.207,0.323-0.345c0.377-0.017,0.758-0.01,1.205-0.004 c0.036,0.188,0.122,0.357,0.241,0.484c0.172,0.24,0.441,0.393,0.736,0.415l0.473,0.037c0.033,0.521,0.468,0.935,0.998,0.935h0.654 l0.304,0.346c0.194,0.221,0.469,0.34,0.751,0.34c0.118,0,0.238-0.021,0.353-0.064c0.389-0.146,0.647-0.52,0.647-0.936 c0-1.534-0.022-3.716-0.043-5.728c-0.007-0.646-0.013-1.318-0.019-1.953c0.086,0.13,0.169,0.256,0.246,0.375 c0.436,0.672,0.866,1.347,1.296,2.021c0.552,0.866,1.104,1.731,1.667,2.591c0.231,0.354,0.575,0.51,0.781,0.604 c0.035,0.017,0.07,0.03,0.101,0.049c0.254,0.148,0.562,0.181,0.838,0.081c0.189-0.066,0.352-0.188,0.47-0.345 c0.029,0.161,0.078,0.323,0.156,0.483c0.243,0.503,0.662,0.822,1.032,1.104c0.126,0.096,0.258,0.195,0.384,0.308 c0.295,0.261,0.715,0.323,1.073,0.163c0.282-0.127,0.485-0.375,0.559-0.667c0.183,0.239,0.471,0.393,0.794,0.393l0.208-0.001 c0.291,0,0.555-0.125,0.739-0.326c0.156,0.078,0.335,0.116,0.511,0.122c0.319,0.009,0.638-0.17,0.836-0.411 c0.182,0.034,0.376,0.011,0.553-0.045c0.294-0.094,0.548-0.359,0.654-0.648c0.068-0.139,0.167-0.338,0.203-0.589 c0.227-0.099,0.414-0.28,0.517-0.514C68.947,77.375,68.898,76.982,68.669,76.691z M58.768,65.671 c-1.051,0.514-2.288,0.641-3.466,0.641c-0.337,0-0.669-0.011-0.991-0.025c-1.056-0.044-1.048-0.626-1.009-3.427 c0.005-0.357,0.01-0.687,0.01-0.925v-0.001l-0.003-3.351c0-0.391,0.225-0.745,0.579-0.909c0.19-0.088,0.408-0.121,0.805-0.121 c1.274,0.003,2.628,0.054,3.963,0.623c1.53,0.653,2.324,1.913,2.361,3.745C61.051,63.638,60.273,64.935,58.768,65.671z"/><path fill="#444445" d="M16.312,21.392h0.748c1.8,0,5.189,0.004,6.868,0.007l0.746,0.001l0.041-6.059L9.401,15.455 l-0.007,0.737c-0.028,3.12-0.116,12.923-0.138,18.768l-0.002,0.598l0.582,0.136c0.069,0.016,0.128,0.061,0.162,0.12 c0.104,0.186,0.167,0.359,0.236,0.556c0.031,0.095,0.065,0.182,0.11,0.262l0.072,0.106c0.061,0.076,0.134,0.142,0.358,0.318 l0.296,0.247l0.671,0.058c0.128,0.011,0.229,0.12,0.229,0.249v1.824l0.719,0.029c0.242,0.011,0.441,0.077,0.609,0.205 c0.114,0.087,0.46,0.351,0.445,1.241l-0.023,1.125l0.822-0.061c0.045-0.004,0.093-0.004,0.143-0.003l0.697,0.01l0.06-0.694 c0.035-0.396,0.137-0.596,0.222-0.649L16,40.344l0.009-0.4c0.053-2.381,0.038-7.775,0.038-7.825c0-0.066,0.027-0.132,0.073-0.178 c0.048-0.047,0.111-0.073,0.178-0.073l7.649,0.014l0.01-5.444l-0.745-0.005c-2.155-0.014-6.841-0.018-6.878-0.018 c-0.136,0-0.248-0.111-0.249-0.248c0,0-0.023-3.05-0.023-4.524C16.062,21.504,16.174,21.392,16.312,21.392z M10.975,36.205 C10.975,36.205,10.976,36.205,10.975,36.205l-0.004,0.002L10.975,36.205z"/><path fill="#444445" d="M16.312,59.392h0.748c1.8,0,5.189,0.004,6.868,0.007l0.746,0.001l0.041-6.059L9.401,53.455 l-0.007,0.737c-0.028,3.12-0.116,12.923-0.138,18.768l-0.002,0.598l0.582,0.136c0.069,0.016,0.128,0.061,0.162,0.12 c0.104,0.186,0.167,0.359,0.236,0.556c0.031,0.095,0.065,0.182,0.11,0.262l0.072,0.106c0.061,0.076,0.134,0.142,0.358,0.318 l0.296,0.247l0.671,0.058c0.128,0.011,0.229,0.12,0.229,0.249v1.824l0.719,0.029c0.242,0.011,0.441,0.077,0.609,0.205 c0.114,0.087,0.46,0.351,0.445,1.241l-0.023,1.125l0.822-0.061c0.045-0.004,0.093-0.004,0.143-0.003l0.697,0.01l0.06-0.694 c0.035-0.396,0.137-0.596,0.222-0.649L16,78.344l0.009-0.4c0.053-2.381,0.038-7.775,0.038-7.825c0-0.066,0.027-0.132,0.073-0.178 c0.048-0.047,0.111-0.073,0.178-0.073l7.649,0.014l0.01-5.444l-0.745-0.005c-2.155-0.014-6.841-0.018-6.878-0.018 c-0.136,0-0.248-0.111-0.249-0.248c0,0-0.023-3.05-0.023-4.524C16.062,59.504,16.174,59.392,16.312,59.392z M10.975,74.205 C10.975,74.205,10.976,74.205,10.975,74.205l-0.004,0.002L10.975,74.205z"/><path fill="#f8e55c" d="M40.953,69.743c0.016-3.762,0.028-7.746,0.02-11.752c0-0.306,0.009-0.613,0.017-0.919 c0.028-1.011,0.061-2.158-0.213-3.343c-0.176-0.763-0.355-1.525-0.535-2.288c-0.265-1.127-0.529-2.253-0.784-3.382 c-0.318-1.405-1.386-1.903-2.203-1.903c-0.534,0-1.054,0.191-1.545,0.569c-0.77,0.591-1.577,1.263-2.257,2.167 c-1.453,1.935-2.286,3.774-2.545,5.624c-0.202,1.438-0.165,2.851-0.129,4.217c0.014,0.549,0.029,1.098,0.026,1.644 c-0.002,0.49,0.119,0.872,0.278,1.162c-0.067,0.131-0.127,0.273-0.176,0.426c-0.215,0.657-0.157,1.313,0.147,1.854 c-0.139,0.294-0.224,0.614-0.25,0.952c-0.067,0.589,0.058,1.043,0.244,1.382c-0.158,0.304-0.252,0.638-0.272,0.98 c-0.027,0.468,0.087,0.935,0.32,1.335c-0.216,0.455-0.279,0.901-0.269,1.287c-1.132,0.146-1.956,1.034-1.956,2.156 c-0.001,0.066-0.012,0.139-0.02,0.212c-0.063,0.566-0.192,1.744,0.772,2.723c0.388,0.394,0.788,0.742,1.181,1.073v1.425 l-0.001,0.116c0,0.085,0,0.17-0.005,0.255c-0.009,0.129-0.003,0.243,0.006,0.337v0.653c-0.002,0.032-0.002,0.08-0.001,0.136v0.07 l0.001,0.009v1.814c-0.006,0.216-0.005,0.479,0,0.742v0.763v3.524l1.755-1.108c0.115,0.02,0.233,0.03,0.353,0.03 c0.149,0,0.296-0.016,0.44-0.046c-0.002,0.856,0,1.704,0.004,2.551c-0.052,1.697,1.032,2.309,1.5,2.495l0.343,0.136l0.369,0.001 l0.357,0.001l0.87,0.003l0.582-0.647c0.626-0.696,0.603-1.493,0.595-1.754v-0.232l0.005-0.003c0.834-0.434,1.283-1.037,1.58-1.436 c0.06-0.081,0.143-0.192,0.176-0.226c0.783-0.641,1.207-1.533,1.206-2.564c-0.001-1.12,0.003-2.241,0.008-3.361 c0.005-1.194,0.01-2.388,0.008-3.582l0.017-0.014c0.44-0.381,0.988-0.855,1.431-1.502c0.659-0.96,0.778-2.13,0.335-3.293 C42.435,70.418,41.771,69.881,40.953,69.743z"/><path fill="#25262f" d="M46.225,42.399c0.282-0.127,0.485-0.375,0.559-0.667c0.183,0.239,0.471,0.393,0.794,0.393 l0.208-0.001c0.291,0,0.555-0.125,0.739-0.326c0.156,0.078,0.335,0.116,0.511,0.122c0.319,0.009,0.638-0.17,0.836-0.411 c0.182,0.034,0.376,0.011,0.553-0.045c0.294-0.094,0.548-0.359,0.654-0.648c0.068-0.139,0.167-0.338,0.203-0.589 c0.227-0.099,0.414-0.28,0.517-0.514c0.149-0.338,0.099-0.73-0.129-1.021l-5.369-6.829c1.681-0.609,3.04-1.743,4.051-3.384 c1.21-1.964,1.59-4.228,1.162-6.919c-0.508-3.194-2.435-5.508-5.573-6.692c-1.478-0.558-3.107-0.818-4.977-0.803 c-2.979,0.027-6.012,0.003-8.946-0.02l-1.575-0.013c-0.478-0.036-0.854,0.136-1.125,0.416c-0.408,0.419-0.389,0.957-0.383,1.134 c0.014,0.391,0.011,0.78,0.008,1.171l-0.003,3.393c-0.001,7.282-0.003,14.566,0.009,21.851c0.001,0.436,0.22,0.752,0.35,0.941 l0.056,0.084c0.172,0.319,0.502,0.521,0.864,0.526c0.38-0.03,0.699-0.185,0.881-0.496l0.071-0.11 c0.097-0.146,0.229-0.347,0.311-0.607c0.103-0.328,0.088-0.636,0.077-0.86c0-0.012-0.001-0.024-0.002-0.036 c0.135-0.088,0.245-0.207,0.323-0.345c0.377-0.017,0.758-0.01,1.205-0.004c0.036,0.188,0.122,0.357,0.241,0.484 c0.172,0.24,0.441,0.393,0.736,0.415l0.473,0.037c0.033,0.521,0.468,0.935,0.998,0.935h0.654l0.304,0.346 c0.194,0.221,0.469,0.34,0.751,0.34c0.118,0,0.238-0.021,0.353-0.064c0.389-0.146,0.647-0.52,0.647-0.936 c0-1.534-0.022-3.716-0.043-5.728c-0.007-0.646-0.013-1.318-0.019-1.953c0.086,0.13,0.169,0.256,0.246,0.375 c0.436,0.672,0.866,1.347,1.296,2.021c0.552,0.866,1.104,1.731,1.667,2.591c0.231,0.354,0.575,0.51,0.781,0.604 c0.035,0.017,0.07,0.03,0.101,0.049c0.254,0.148,0.562,0.181,0.838,0.081c0.189-0.066,0.352-0.188,0.47-0.345 c0.029,0.161,0.078,0.323,0.156,0.483c0.243,0.503,0.662,0.822,1.032,1.104c0.126,0.096,0.258,0.195,0.384,0.308 C45.446,42.497,45.866,42.56,46.225,42.399z M45.218,38.15c-0.139-0.111-0.304-0.182-0.476-0.207l-0.166-0.894 c-0.067-0.363-0.33-0.66-0.683-0.771l-0.187-0.059c-0.461-0.147-0.959,0.06-1.184,0.487c-0.035,0.067-0.077,0.134-0.118,0.2 c-0.09,0.145-0.193,0.312-0.276,0.506c-0.241-0.375-0.48-0.751-0.72-1.127c-0.433-0.68-0.866-1.358-1.304-2.034 c-0.389-0.601-0.906-1.354-1.388-2.057l-0.701-1.027c-0.228-0.338-0.638-0.504-1.035-0.419c-0.843,0.178-0.843,0.178-0.781,6.188 c0.012,1.146,0.024,2.345,0.032,3.448c-0.162-0.158-0.378-0.263-0.62-0.282l-0.594-0.046c-0.049-0.225-0.145-0.426-0.328-0.608 c-0.372-0.371-0.817-0.358-1.171-0.359H33.14c-0.459-0.007-0.919-0.013-1.374,0.006l-0.105-0.006 c-0.164-0.013-0.434-0.03-0.717,0.054c-0.007-6.333-0.006-12.666-0.005-18.998l0.003-3.379c0.002-0.242,0.003-0.483,0.001-0.73 L32,16.045c2.943,0.023,5.986,0.047,8.981,0.02c1.61-0.021,3.01,0.206,4.252,0.674c2.496,0.942,3.904,2.622,4.304,5.136 c0.35,2.199,0.059,4.016-0.889,5.556c-0.963,1.562-2.272,2.484-3.994,2.817c-0.197,0.036-0.337,0.115-0.421,0.162l-0.064,0.034 c-0.269,0.135-0.463,0.383-0.529,0.676s0.004,0.601,0.19,0.837l5.612,7.139c-0.004,0.008-0.008,0.015-0.012,0.022 c-0.068,0-0.14,0.007-0.215,0.022c-0.157,0.032-0.298,0.097-0.419,0.182l-0.327-0.018c-0.067-0.23-0.183-0.431-0.348-0.599 c-0.314-0.319-0.749-0.465-1.294-0.43l-0.508,0.029c-0.226,0.009-0.543,0.021-0.844,0.154 C45.412,38.341,45.325,38.235,45.218,38.15z"/><path fill="#25262f" d="M41.656,20.176c-1.335-0.569-2.689-0.62-3.963-0.623c-0.396,0-0.614,0.033-0.805,0.121 c-0.354,0.164-0.58,0.519-0.579,0.909l0.003,3.351v0.001c0,0.238-0.005,0.567-0.01,0.925c-0.04,2.801-0.048,3.383,1.009,3.427 c0.322,0.015,0.654,0.025,0.991,0.025c1.177,0,2.415-0.127,3.466-0.641c1.506-0.736,2.283-2.033,2.249-3.75 C43.98,22.089,43.186,20.829,41.656,20.176z M40.889,25.874c-0.717,0.351-1.651,0.455-2.6,0.438 c-0.001-0.466,0.007-1.04,0.012-1.424c0.005-0.368,0.01-0.706,0.01-0.952v-0.001l-0.002-2.374 c0.892,0.022,1.756,0.111,2.562,0.455c0.67,0.286,1.122,0.727,1.146,1.944C42.036,24.905,41.698,25.479,40.889,25.874z"/><path fill="#25262f" d="M90.955,22.081c0.549-0.001,0.995-0.444,0.999-0.992l0.044-6.049 c0.002-0.267-0.103-0.522-0.29-0.712s-0.442-0.296-0.709-0.296l-14.804-0.018c0,0,0,0-0.001,0c-0.265,0-0.52,0.105-0.707,0.293 c-0.188,0.188-0.293,0.442-0.293,0.708c0,0,0.023,16.616,0.029,24.541v0.264c0,0.382-0.001,0.763,0.02,1.142 c0.007,0.133,0.022,0.267,0.038,0.399c0.021,0.176,0.04,0.343,0.026,0.429c-0.003,0.009-0.006,0.018-0.009,0.026 c-0.127,0.384-0.01,0.803,0.29,1.066c0.078,0.072,0.168,0.134,0.269,0.18c0.202,0.093,0.419,0.113,0.625,0.068h1.281 c0.314,0,0.61-0.147,0.799-0.398s0.249-0.576,0.162-0.879c-0.024-0.083-0.038-0.148-0.045-0.199 c0.016-0.001,0.034-0.003,0.054-0.005c0.051,0.411,0.482,0.784,0.882,0.887c0.481,0.124,0.975-0.124,1.167-0.576 c0.188-0.042,0.386-0.131,0.562-0.309c0.149-0.15,0.314-0.263,0.559-0.316c0.001,0.005,0.002,0.009,0.003,0.014 c0.033,0.149,0.083,0.283,0.138,0.403c-0.088,0.229-0.091,0.484-0.001,0.719c0.12,0.312,0.389,0.545,0.715,0.617 c0.377,0.085,0.732,0.153,1.065,0.153c0.329,0,0.635-0.067,0.916-0.254c0.216-0.144,0.368-0.323,0.479-0.521 c0.057-0.001,0.113-0.002,0.166-0.004c0.455-0.014,0.475,0.01,0.555,0.111c0.264,0.333,0.709,0.463,1.113,0.323 c0.402-0.14,0.671-0.519,0.671-0.944v-0.505c0.025-0.002,0.051-0.005,0.076-0.009l0.818-0.118c0.278-0.04,0.515-0.192,0.669-0.406 c0.479,0.036,0.937-0.316,1.08-0.775C90.419,40,90.5,39.79,90.512,39.53c0.007-0.141,0.012-0.346,0.016-0.581 c0.03-0.077,0.05-0.158,0.058-0.242c0.012-0.145-0.006-0.284-0.051-0.414c0.004-0.675,0-1.343,0-1.391 c-0.001-0.266-0.108-0.521-0.297-0.707c-0.188-0.185-0.44-0.288-0.703-0.288c-0.003,0-0.006,0-0.008,0l-5.015,0.042l0.001-2.82 l6.189,0.004l0,0c0.266,0,0.521-0.106,0.709-0.295c0.188-0.189,0.292-0.445,0.291-0.712l-0.039-6.038 c-0.003-0.549-0.45-0.993-1-0.993c0,0-4-0.002-6.151,0.016v-3.049C86.739,22.089,90.955,22.08,90.955,22.081z M84.204,20.056 c-0.656-0.008-0.799,0.01-0.799,0.01c-0.494,0.069-0.895,0.495-0.895,0.994l0.001,5.082c0,0.286,0.13,0.557,0.343,0.747 c0.213,0.189,0.504,0.28,0.789,0.244c0.04-0.005,0.179-0.017,0.487-0.02c1.412-0.016,4.088-0.019,5.537-0.02l0.026,4.037 l-6.183-0.004l0,0c-0.265,0-0.519,0.105-0.707,0.293s-0.293,0.441-0.293,0.707l-0.001,4.83c0,0.267,0.106,0.522,0.296,0.71 s0.453,0.325,0.712,0.29l4.905-0.041c-0.059,0.036-0.115,0.076-0.168,0.121c-0.233,0.147-0.443,0.337-0.592,0.575 c-0.034,0.055-0.064,0.109-0.089,0.165c-0.044-0.009-0.089-0.015-0.135-0.018l-0.116-0.008c-0.486-0.059-0.927,0.271-1.052,0.74 c-0.014,0.054-0.026,0.109-0.046,0.206c-0.056,0.043-0.11,0.085-0.161,0.129c-0.188,0.164-0.306,0.391-0.335,0.635 c-0.148-0.006-0.283-0.002-0.4,0.001c-0.161,0.005-0.361,0.01-0.432-0.019c-0.279-0.112-0.594-0.094-0.857,0.051 c-0.064,0.035-0.124,0.077-0.178,0.125c0.004-0.088,0.007-0.178,0.007-0.27c0-0.496-0.364-0.917-0.855-0.989 c-0.23-0.034-0.49-0.062-0.768-0.062c-0.618,0-1.324,0.137-1.983,0.643c-0.129-0.104-0.285-0.177-0.457-0.206 c-0.448-0.078-1.773-0.305-2.583,0.454c0-0.121,0-0.243,0-0.365v-0.271c-0.005-6.756-0.022-19.83-0.027-23.539l12.795,0.016 l-0.03,4.051C88.479,20.094,85.694,20.08,84.204,20.056z"/><path fill="#25262f" d="M70.53,35.847c-0.003,0-0.007,0-0.01,0l-6.688,0.068v-2.801l6.202,0.021c0.001,0,0.002,0,0.003,0 c0.55,0,0.997-0.444,1-0.994l0.033-5.953c0.003-0.551-0.44-1.001-0.991-1.006l-6.217-0.057c-0.008-0.867-0.019-2.135-0.026-3.055 l1.388-0.002c1.532-0.001,3.064-0.004,4.596,0.011c0.321,0.005,0.802-0.036,1.177-0.413c0.417-0.42,0.41-0.979,0.407-1.164 c-0.026-1.775-0.025-3.361,0.002-4.85c0.003-0.192,0.015-0.778-0.423-1.213c-0.438-0.436-1.033-0.415-1.256-0.413 c-1.686,0.048-3.211,0.063-4.685,0.066C62.359,14.087,55.555,14,55.554,14c-0.259-0.018-0.524,0.101-0.714,0.288 s-0.298,0.442-0.298,0.71L54.5,36.008c-0.001,0.295-0.002,0.629,0.049,0.973c0.028,0.188,0.107,0.421,0.249,0.635 c-0.324,0.542-0.31,1.105-0.3,1.508c0.015,0.614,0.017,1.229,0.019,1.846l0.007,1.141c0.004,0.333,0.157,0.62,0.462,0.859 c0.187,0.176,0.433,0.271,0.686,0.271c0.045,0,0.091-0.003,0.137-0.01c0.058-0.008,0.115-0.021,0.17-0.038 c0.356,0.072,0.766,0.013,1.221-0.055c0.466-0.069,0.82-0.453,0.852-0.923l0.029-0.436c0.082,0.349,0.345,0.629,0.693,0.73 c0.377,0.11,0.78-0.01,1.036-0.306c0.311-0.359,0.923-0.646,1.432-0.759c-0.005,0.527,0.015,0.984,0.388,1.364 c0.402,0.408,0.904,0.41,1.479,0.412l0.205,0.008c0.178,0.007,0.711,0.03,1.136-0.369c0.098-0.093,0.207-0.226,0.291-0.407 c0.219,0.03,0.438,0.065,0.657,0.101l0.466,0.074c0.289,0.042,0.581-0.041,0.802-0.231c0.221-0.189,0.348-0.467,0.348-0.758 v-0.236h0.802c0.552,0,1-0.447,1-1V39.78c0-0.05,0-0.097,0-0.141c0.032-0.004,0.067-0.009,0.106-0.014 c0.019-0.005,0.08-0.004,0.215,0.038c0.014,0.064,0.029,0.127,0.048,0.183c0.065,0.199,0.158,0.354,0.271,0.546 c0.215,0.398,0.669,0.604,1.11,0.5l0.186-0.045c0.451-0.107,0.77-0.51,0.77-0.974c0-0.792,0.011-3.022,0.011-3.022 c0.001-0.268-0.105-0.525-0.295-0.714C71.048,35.951,70.794,35.847,70.53,35.847z M66.91,38.812 c-0.285-0.078-0.607-0.056-0.959,0.074c-0.383,0.141-0.629,0.491-0.653,0.875c-0.179,0.183-0.286,0.432-0.286,0.7v0.01 c-0.234-0.032-0.47-0.06-0.708-0.078c-0.232-0.016-0.571,0.034-0.922,0.357c-0.042,0.04-0.102,0.099-0.165,0.175 c-0.022-0.159-0.054-0.305-0.083-0.433c-0.016-0.072-0.033-0.145-0.045-0.217c-0.068-0.388-0.357-0.7-0.739-0.797 c-0.209-0.054-0.437-0.079-0.675-0.079c-0.674,0-1.437,0.201-2.109,0.541c-0.174-0.143-0.396-0.228-0.635-0.228h-1.782 c-0.241,0-0.462,0.085-0.636,0.229c-0.003-0.29-0.007-0.58-0.015-0.869c-0.008-0.321,0-0.42,0.039-0.458 c0.492-0.487,0.508-0.988,0.474-1.243c-0.028-0.209-0.132-0.57-0.503-0.878c-0.01-0.158-0.008-0.319-0.007-0.48l0.039-20.001 c2,0.024,6.449,0.075,8.499,0.08c1.363,0.002,2.761-0.016,4.361-0.054c-0.019,1.247-0.02,2.568-0.003,4.036 c-1.392-0.01-2.784-0.008-4.175-0.007l-2.39,0.002c-0.552,0-1,0.447-1,1c0,0.906,0.04,5.056,0.04,5.056 c0.005,0.545,0.446,0.985,0.991,0.99l6.203,0.057l-0.022,3.959l-6.208-0.021c-0.001,0-0.002,0-0.003,0 c-0.265,0-0.519,0.104-0.706,0.292c-0.188,0.188-0.294,0.442-0.294,0.708v4.814c0,0.267,0.107,0.523,0.296,0.711 c0.19,0.188,0.45,0.33,0.714,0.289l4.879-0.05C67.262,38.076,67.025,38.382,66.91,38.812z"/><path fill="#25262f" d="M63.357,69.991c1.717-0.617,3.104-1.771,4.136-3.444c1.229-1.995,1.615-4.294,1.18-7.028 c-0.517-3.244-2.474-5.594-5.66-6.796c-1.501-0.567-3.158-0.856-5.058-0.815c-3.037,0.028-6.13,0.002-9.122-0.021l-1.584-0.013 c-0.483,0.023-0.859,0.137-1.132,0.418c-0.41,0.421-0.391,0.963-0.385,1.142c0.014,0.399,0.011,0.8,0.008,1.2l-0.003,3.405 c-0.001,7.424-0.003,14.849,0.009,22.271c0,0.44,0.223,0.762,0.356,0.953l0.058,0.087c0.172,0.316,0.502,0.517,0.863,0.522 c0.355,0.016,0.697-0.184,0.879-0.495l0.073-0.113c0.098-0.147,0.232-0.35,0.315-0.613c0.104-0.331,0.088-0.642,0.077-0.869 c-0.001-0.016-0.002-0.031-0.003-0.048c0.141-0.09,0.256-0.215,0.337-0.359c0.404-0.014,0.81-0.01,1.251-0.003 c0.035,0.195,0.123,0.371,0.251,0.508c0.172,0.234,0.437,0.383,0.726,0.406l0.499,0.039c0.026,0.529,0.463,0.95,0.999,0.95h0.674 l0.315,0.358c0.194,0.22,0.469,0.339,0.75,0.339c0.119,0,0.238-0.021,0.354-0.064c0.389-0.147,0.646-0.52,0.646-0.936 c0-1.56-0.022-3.777-0.043-5.823c-0.007-0.68-0.014-1.386-0.02-2.051c0.1,0.149,0.195,0.294,0.284,0.431 c0.444,0.685,0.882,1.373,1.321,2.061c0.561,0.88,1.122,1.761,1.694,2.634c0.233,0.354,0.58,0.513,0.787,0.607 c0.036,0.016,0.072,0.031,0.104,0.05c0.253,0.147,0.56,0.179,0.838,0.081c0.203-0.071,0.375-0.205,0.495-0.379 c0.028,0.176,0.079,0.354,0.164,0.528c0.246,0.509,0.67,0.832,1.044,1.118c0.128,0.098,0.263,0.199,0.393,0.313 c0.294,0.262,0.715,0.322,1.073,0.164c0.294-0.133,0.502-0.396,0.568-0.703c0.182,0.256,0.48,0.422,0.816,0.422l0.226-0.001 c0.291-0.004,0.553-0.132,0.734-0.336c0.159,0.082,0.345,0.122,0.527,0.127c0.007,0.001,0.015,0.001,0.022,0.001 c0.306,0,0.626-0.18,0.819-0.419c0.184,0.031,0.382,0.013,0.563-0.045c0.294-0.093,0.549-0.359,0.655-0.648 c0.07-0.142,0.171-0.347,0.207-0.605c0.232-0.098,0.422-0.281,0.527-0.519c0.148-0.338,0.099-0.73-0.129-1.021L63.357,69.991z M63.977,78.469l-0.003,0.035c-0.004-0.001-0.008-0.003-0.012-0.005l0.021-0.959l0.067,0.629 C64.012,78.262,63.986,78.363,63.977,78.469z M66.581,77.4c-0.072,0.006-0.146,0.005-0.224,0.021 c-0.161,0.032-0.304,0.099-0.427,0.186l-0.351-0.02c-0.066-0.236-0.184-0.441-0.352-0.612c-0.315-0.321-0.755-0.465-1.398-0.428 l-0.421,0.025c-0.232,0.009-0.561,0.022-0.869,0.162c-0.063-0.123-0.153-0.233-0.264-0.322c-0.143-0.114-0.312-0.186-0.489-0.21 l-0.171-0.922c-0.068-0.365-0.355-0.67-0.71-0.779l-0.153-0.049c-0.464-0.149-0.967,0.055-1.194,0.485 c-0.036,0.068-0.079,0.136-0.121,0.203c-0.096,0.155-0.206,0.334-0.293,0.544c-0.25-0.39-0.499-0.781-0.749-1.172 c-0.441-0.692-0.883-1.385-1.33-2.073c-0.394-0.607-0.916-1.369-1.404-2.081l-0.721-1.057c-0.229-0.34-0.642-0.502-1.044-0.417 c-0.834,0.184-0.834,0.184-0.772,6.283c0.012,1.179,0.025,2.414,0.033,3.548c-0.165-0.176-0.393-0.293-0.649-0.313l-0.618-0.049 c-0.049-0.23-0.145-0.437-0.332-0.622c-0.373-0.371-0.818-0.359-1.179-0.36h-0.338c-0.483-0.009-0.966-0.016-1.446,0.005 l-0.108-0.006c-0.17-0.013-0.452-0.031-0.744,0.061c-0.008-6.464-0.007-12.929-0.005-19.393l0.003-3.392 c0.002-0.255,0.003-0.51,0.001-0.771l1.075,0.009c3,0.024,6.102,0.051,9.157,0.021c1.65-0.021,3.066,0.209,4.333,0.687 c2.546,0.961,3.982,2.674,4.391,5.239c0.357,2.241,0.06,4.095-0.908,5.665c-0.982,1.594-2.319,2.535-4.09,2.878 c-0.189,0.037-0.326,0.113-0.408,0.159l-0.067,0.036c-0.269,0.135-0.463,0.383-0.528,0.676c-0.066,0.293,0.004,0.601,0.189,0.837 l5.718,7.272C66.596,77.371,66.588,77.386,66.581,77.4z"/><path fill="#25262f" d="M58.654,58.124c-1.354-0.578-2.73-0.63-4.024-0.633c-0.394,0.001-0.629,0.033-0.821,0.124 c-0.35,0.166-0.573,0.519-0.573,0.905l0.002,3.411v0.001c0,0.242-0.005,0.575-0.01,0.938c-0.04,2.838-0.048,3.429,1.01,3.472 c0.327,0.015,0.665,0.025,1.008,0.025c1.196,0,2.452-0.129,3.518-0.649c1.526-0.746,2.314-2.06,2.28-3.8 C61.008,60.063,60.203,58.786,58.654,58.124z M57.887,63.922c-0.727,0.354-1.683,0.446-2.631,0.446c-0.013,0-0.026,0-0.039,0 c-0.001-0.479,0.007-1.073,0.013-1.47c0.005-0.373,0.01-0.716,0.01-0.965v-0.001l-0.002-2.435 c0.917,0.022,1.804,0.112,2.631,0.466c0.689,0.294,1.152,0.745,1.177,1.994C59.064,62.929,58.718,63.516,57.887,63.922z"/><path fill="#25262f" d="M88.031,74.071l-6.823,0.069v-2.885l6.329,0.021c0.001,0,0.002,0,0.003,0 c0.55,0,0.997-0.444,1-0.994l0.033-6.059c0.003-0.551-0.44-1.001-0.991-1.006l-6.344-0.058c-0.008-0.889-0.02-2.199-0.027-3.144 l1.431-0.002c1.558,0,3.118-0.005,4.674,0.011c0.342,0.003,0.809-0.035,1.187-0.414c0.421-0.423,0.412-0.987,0.41-1.173 c-0.026-1.819-0.025-3.435,0.002-4.936c0.003-0.194,0.015-0.785-0.426-1.222c-0.44-0.437-1.039-0.413-1.265-0.415 c-1.702,0.049-3.264,0.074-4.768,0.067c-2.731-0.005-9.653-0.094-9.654-0.094c-0.265,0.009-0.524,0.101-0.714,0.288 c-0.19,0.188-0.298,0.442-0.298,0.71l-0.042,21.391c0,0.295-0.001,0.63,0.051,0.977c0.029,0.191,0.11,0.43,0.255,0.646 c-0.333,0.552-0.318,1.126-0.308,1.535c0.015,0.621,0.017,1.243,0.02,1.865l0.007,1.173c0.004,0.333,0.157,0.621,0.467,0.864 c0.22,0.206,0.54,0.272,0.838,0.23c0.037-0.005,0.073-0.013,0.109-0.022c0.371,0.093,0.805,0.029,1.287-0.042 c0.466-0.068,0.821-0.453,0.852-0.924l0.035-0.525h0.013c0.058,0.385,0.334,0.701,0.708,0.811c0.375,0.11,0.78-0.009,1.037-0.305 c0.323-0.373,0.963-0.671,1.488-0.782c-0.006,0.54,0.01,1.01,0.39,1.396c0.404,0.41,0.913,0.412,1.494,0.414l0.206,0.008 c0.031,0.001,0.074,0.003,0.125,0.003c0.239,0,0.667-0.042,1.019-0.373c0.102-0.095,0.213-0.232,0.298-0.422 c0.225,0.031,0.449,0.067,0.674,0.104l0.483,0.076c0.288,0.041,0.58-0.041,0.801-0.231s0.348-0.467,0.348-0.758v-0.258h0.833 c0.552,0,1-0.447,1-1v-0.633c0-0.057,0-0.109,0-0.157c0.037-0.006,0.078-0.011,0.123-0.017c0.023-0.006,0.089-0.004,0.236,0.041 c0.014,0.07,0.031,0.137,0.051,0.196c0.065,0.198,0.158,0.354,0.274,0.552c0.216,0.401,0.677,0.604,1.122,0.497l0.189-0.047 c0.446-0.11,0.759-0.511,0.759-0.971c0-0.806,0.011-3.075,0.011-3.075c0.001-0.268-0.105-0.525-0.295-0.714 S88.305,74.057,88.031,74.071z M84.367,77.093c-0.291-0.085-0.619-0.062-0.98,0.071c-0.385,0.142-0.631,0.496-0.653,0.881 c-0.182,0.184-0.291,0.434-0.291,0.705v0.03c-0.244-0.034-0.487-0.062-0.732-0.081c-0.226-0.017-0.572,0.03-0.925,0.352 c-0.05,0.046-0.123,0.118-0.198,0.214c-0.022-0.178-0.058-0.339-0.09-0.479c-0.017-0.074-0.033-0.147-0.046-0.221 c-0.067-0.388-0.356-0.7-0.738-0.797c-0.211-0.054-0.442-0.08-0.684-0.08c-0.687,0-1.464,0.206-2.147,0.555 c-0.175-0.147-0.4-0.235-0.644-0.235h-1.813c-0.254,0-0.487,0.095-0.664,0.252c-0.003-0.307-0.007-0.614-0.015-0.922 c-0.009-0.359,0.004-0.438,0.045-0.479c0.495-0.49,0.511-0.993,0.477-1.25c-0.028-0.211-0.133-0.576-0.511-0.887 c-0.011-0.162-0.009-0.328-0.009-0.498l0.041-20.37c2.027,0.024,6.573,0.077,8.665,0.081c1.401,0.007,2.831-0.016,4.456-0.055 c-0.019,1.27-0.02,2.625-0.002,4.143c-1.423-0.01-2.846-0.007-4.267-0.007l-2.433,0.002c-0.552,0-1,0.447-1,1 c0,0.923,0.041,5.145,0.041,5.145c0.005,0.545,0.446,0.985,0.991,0.99l6.329,0.058l-0.022,4.064l-6.334-0.021 c-0.246-0.01-0.521,0.104-0.709,0.292c-0.188,0.188-0.294,0.442-0.294,0.708v4.898c0,0.267,0.107,0.522,0.296,0.711 c0.188,0.186,0.44,0.289,0.704,0.289c0.003,0,0.007,0,0.01,0L85.27,76.1C84.742,76.301,84.485,76.62,84.367,77.093z"/><path fill="#25262f" d="M8.549,37.626c0.326,0.239,0.721,0.305,1.177,0.191c0.012,0.037,0.025,0.074,0.042,0.11 c0.148,0.334,0.467,0.56,0.83,0.59l0.121,0.011v1.379c0,0.322,0.155,0.625,0.417,0.812s0.598,0.236,0.903,0.135l0.242-0.082 c0.085-0.024,0.154-0.04,0.207-0.049c0.003,0.044,0.006,0.1,0.005,0.167l-0.01,0.454c-0.011,0.488-0.021,0.977-0.008,1.466 c0.013,0.441,0.268,0.741,0.42,0.919c0.156,0.232,0.4,0.392,0.677,0.434c0.051,0.008,0.103,0.012,0.154,0.012 c0.224,0,0.442-0.074,0.62-0.218c0.07-0.044,0.192-0.121,0.312-0.248c0.034,0.035,0.066,0.067,0.096,0.097 c0.208,0.248,0.536,0.366,0.855,0.345c0.323-0.026,0.623-0.218,0.789-0.495c0.103-0.137,0.317-0.42,0.324-0.827 c0.004-0.229-0.009-0.459-0.023-0.688c-0.011-0.179-0.023-0.357-0.02-0.536c0-0.002,0-0.005,0-0.007 c0.132-0.087,0.231-0.184,0.303-0.272c0.396-0.482,0.322-1.046,0.278-1.353c0.039-1.75,0.042-5.159,0.04-6.853l6.895,0.013 c0.001,0,0.001,0,0.002,0c0.551,0,0.998-0.445,1-0.997c0,0,0.01-3.201,0.01-4.497v-1.456c0-0.553-0.448-1-1-1h-0.951 c-1.529-0.017-4.413-0.009-5.928-0.014c-0.005-0.709-0.01-1.684-0.014-2.526c2.553,0.001,7.607,0.008,7.607,0.008h0.001 c0.55,0,0.996-0.443,1-0.993l0.044-6.561c0.002-0.268-0.104-0.525-0.293-0.714s-0.449-0.31-0.714-0.293L9.146,14.206 C8.6,14.21,8.159,14.65,8.153,15.196c-0.001,0.146-0.14,14.657-0.152,21.177C8.001,36.936,8.185,37.357,8.549,37.626z M10.145,16.199l13.815-0.103l-0.031,4.552c-1.679-0.003-5.069-0.007-6.869-0.007h-0.748c-0.552,0-1,0.447-1,1 c0,1.477,0.023,4.53,0.023,4.53c0.004,0.548,0.448,0.99,0.996,0.992c0,0,4.713,0.004,6.876,0.018v0.456 c0,0.83-0.004,2.442-0.008,3.492L16.3,31.116c-0.001,0-0.001,0-0.002,0c-0.265,0-0.52,0.105-0.708,0.293s-0.293,0.444-0.292,0.71 c0,0.055,0.015,5.457-0.038,7.807c0,0.024,0,0.05,0.001,0.077c-0.415,0.265-0.531,0.815-0.566,1.217 c-0.072-0.001-0.142,0-0.208,0.005l0.006-0.301c0.014-0.845-0.235-1.469-0.741-1.854c-0.29-0.221-0.635-0.341-1.032-0.357v-1.104 c0-0.52-0.398-0.953-0.917-0.996l-0.431-0.037c-0.055-0.047-0.112-0.092-0.169-0.138c-0.072-0.057-0.181-0.144-0.203-0.171 c-0.03-0.055-0.047-0.117-0.071-0.184c-0.07-0.197-0.149-0.41-0.277-0.638c-0.14-0.249-0.377-0.421-0.646-0.483 C10.028,29.119,10.116,19.317,10.145,16.199z"/><path fill="#25262f" d="M25.24,51.932L9.15,52.051c-0.546,0.004-0.987,0.444-0.993,0.99 C8.155,53.189,8.014,67.956,8.002,74.59c-0.001,0.567,0.184,0.991,0.551,1.261c0.331,0.244,0.732,0.308,1.194,0.188 c0.002,0.002,0.004,0.004,0.005,0.005c0.012,0.041,0.027,0.082,0.045,0.122c0.148,0.332,0.466,0.559,0.828,0.589l0.141,0.013v1.42 c0,0.322,0.156,0.625,0.417,0.812c0.262,0.189,0.599,0.238,0.904,0.135l0.245-0.085c0.098-0.028,0.174-0.044,0.231-0.053 c0.005,0.048,0.008,0.111,0.007,0.191l-0.01,0.458c-0.011,0.498-0.022,0.996-0.008,1.494c0.013,0.444,0.261,0.735,0.426,0.927 c0.156,0.231,0.401,0.391,0.677,0.432c0.051,0.008,0.102,0.012,0.152,0.012c0.225,0,0.443-0.074,0.621-0.218 c0.073-0.046,0.202-0.128,0.326-0.264c0.039,0.041,0.076,0.079,0.111,0.112c0.208,0.249,0.533,0.375,0.856,0.344 c0.323-0.025,0.624-0.218,0.79-0.496c0.104-0.138,0.319-0.423,0.326-0.831c0.004-0.232-0.009-0.466-0.023-0.699 c-0.011-0.182-0.023-0.364-0.02-0.547c0-0.005,0-0.011,0-0.016c0.136-0.088,0.238-0.188,0.312-0.278 c0.398-0.485,0.323-1.053,0.279-1.366c0.04-1.787,0.042-5.273,0.041-6.99l7.034,0.013c0,0,0.001,0,0.002,0 c0.551,0,0.998-0.445,1-0.997c0,0,0.01-3.257,0.01-4.575v-1.482c0-0.553-0.448-1-1-1h-0.967c-1.562,0.005-4.512-0.008-6.05-0.014 c-0.005-0.729-0.011-1.738-0.014-2.606c2.593,0,7.758,0.008,7.758,0.008H25.2c0.55,0,0.996-0.443,1-0.993l0.045-6.675 c0.002-0.268-0.104-0.525-0.293-0.714C25.765,52.035,25.519,51.927,25.24,51.932z M24.208,58.605 c-1.703-0.003-5.169-0.007-7.008-0.007h-0.76c-0.552,0-1,0.447-1,1c0,1.503,0.023,4.61,0.023,4.61 c0.004,0.548,0.448,0.99,0.996,0.992c0,0,4.828-0.004,7.014,0.018V65.7c0,0.849-0.004,2.503-0.008,3.57l-7.039-0.013 c0,0-0.001,0-0.002,0c-0.265,0-0.52,0.105-0.708,0.293c-0.188,0.188-0.293,0.444-0.292,0.71c0,0.056,0.015,5.553-0.038,7.943 c-0.001,0.028,0,0.058,0.001,0.088c-0.429,0.266-0.544,0.838-0.578,1.247c-0.085-0.003-0.168,0-0.246,0.006l0.007-0.323 c0.015-0.854-0.237-1.484-0.747-1.874c-0.296-0.225-0.649-0.346-1.057-0.36v-1.141c0-0.52-0.398-0.952-0.916-0.996l-0.446-0.038 c-0.058-0.049-0.117-0.097-0.176-0.144c-0.074-0.06-0.187-0.149-0.21-0.18c-0.031-0.057-0.049-0.121-0.073-0.189 c-0.071-0.199-0.151-0.416-0.281-0.646c-0.143-0.253-0.385-0.427-0.659-0.486c0.022-5.956,0.112-15.969,0.141-19.125l14.093-0.104 L24.208,58.605z"/><path fill="#25262f" d="M41.102,69.795c0.017-3.873,0.029-7.975,0.021-12.099c0-0.315,0.009-0.631,0.018-0.947 c0.029-1.041,0.062-2.221-0.219-3.442c-0.182-0.786-0.366-1.57-0.55-2.355c-0.272-1.16-0.545-2.32-0.808-3.481 c-0.328-1.446-1.427-1.959-2.269-1.96c-0.55,0-1.085,0.197-1.59,0.586c-0.792,0.609-1.624,1.301-2.323,2.231 c-1.496,1.992-2.354,3.885-2.621,5.79c-0.208,1.481-0.17,2.935-0.133,4.341c0.015,0.565,0.03,1.13,0.027,1.693 c-0.002,0.505,0.123,0.898,0.287,1.197c-0.069,0.135-0.13,0.281-0.182,0.439c-0.222,0.676-0.162,1.352,0.151,1.908 c-0.143,0.302-0.231,0.632-0.257,0.98c-0.069,0.607,0.06,1.074,0.251,1.422c-0.163,0.312-0.26,0.657-0.28,1.009 c-0.028,0.482,0.09,0.963,0.33,1.375c-0.223,0.469-0.287,0.927-0.277,1.325c-1.165,0.151-2.014,1.064-2.014,2.219 c-0.001,0.068-0.012,0.143-0.021,0.218c-0.064,0.583-0.198,1.796,0.794,2.804c0.399,0.406,0.811,0.764,1.216,1.105v1.467 l-0.001,0.12c0,0.087,0,0.175-0.005,0.262c-0.009,0.133-0.003,0.25,0.006,0.347v0.673c-0.002,0.033-0.002,0.083-0.001,0.14v0.072 l0.001,0.009v1.868c-0.006,0.222-0.005,0.493,0,0.764v0.786v3.628l1.807-1.141c0.119,0.02,0.24,0.031,0.363,0.031 c0.154,0,0.305-0.016,0.453-0.047c-0.002,0.881,0,1.754,0.004,2.626c-0.053,1.747,1.062,2.377,1.544,2.569l0.353,0.141l0.38,0.001 l0.367,0.001l0.896,0.004l0.599-0.667c0.645-0.717,0.621-1.537,0.613-1.806V87.76l0.005-0.003 c0.859-0.447,1.321-1.067,1.627-1.478c0.062-0.084,0.147-0.198,0.181-0.233c0.806-0.66,1.242-1.579,1.241-2.64 c-0.001-1.153,0.003-2.307,0.008-3.46c0.005-1.229,0.01-2.458,0.008-3.688l0.017-0.015c0.453-0.392,1.017-0.88,1.474-1.547 c0.678-0.988,0.801-2.193,0.345-3.39C42.627,70.49,41.944,69.937,41.102,69.795z M40.944,73.568 c-0.332,0.485-0.783,0.861-1.217,1.238c-0.427,0.371-0.625,0.777-0.624,1.337c0.005,2.422-0.019,4.844-0.016,7.266 c0,0.471-0.163,0.808-0.529,1.109c-0.491,0.402-0.698,1.078-1.443,1.465c0-1.027,0-1.982,0-2.937c0-0.692,0.006-1.384,0.001-2.076 c-0.001-0.181,0.063-0.406-0.227-0.455c-0.024-0.004-0.046-0.006-0.066-0.006c-0.2,0-0.238,0.185-0.349,0.318 c-0.419,0.506-0.456,1.087-0.45,1.704c0.016,1.814,0.007,3.628,0.007,5.442c0,0.171,0.031,0.349-0.099,0.494 c-0.124,0-0.247-0.001-0.369-0.001c-0.349-0.139-0.283-0.453-0.284-0.722c-0.007-1.34-0.007-2.679,0.002-4.019 c0.004-0.609-0.187-0.913-0.583-0.913c-0.139,0-0.303,0.037-0.492,0.112c-0.082,0.032-0.179,0.071-0.266,0.071 c-0.062,0-0.118-0.019-0.161-0.073c-0.126-0.16-0.229-0.223-0.323-0.223c-0.146,0-0.266,0.154-0.406,0.327 c-0.083,0.103-0.163,0.151-0.229,0.151c-0.1,0-0.167-0.109-0.161-0.297c0.002-0.076,0-0.151,0-0.227l-0.009,0.006v-0.831 c-0.005-0.24-0.006-0.479,0-0.719v-1.974c0-0.004-0.001-0.009-0.001-0.013c-0.002-0.035,0.001-0.067,0.001-0.101v-0.8 c-0.003-0.033-0.012-0.059-0.01-0.098c0.01-0.168,0.008-0.336,0.01-0.504v-2.397c-0.604-0.516-1.233-1.011-1.791-1.577 c-0.439-0.446-0.2-1.07-0.199-1.619c0-0.165,0.172-0.236,0.337-0.241c0.14-0.004,0.282-0.021,0.421-0.021 c0.077,0,0.153,0.005,0.227,0.021c0.149,0.032,0.289,0.047,0.422,0.047c0.932,0,1.491-0.734,2.064-1.352 c0.332-0.358,0.059-0.853-0.203-1.268c-0.39,0.301-0.771,0.595-1.189,0.917c-0.235-0.704,0.164-1.098,0.599-1.398 c0.983-0.679,1.088-0.872,0.83-2.085c-0.417,0.115-0.606,0.524-0.95,0.725c-0.122,0.071-0.248,0.237-0.37,0.237 c-0.039,0-0.077-0.016-0.114-0.057c-0.176-0.191-0.154-0.5,0.074-0.696c0.357-0.307,0.738-0.588,1.105-0.885 c0.268-0.217,0.491-1.332,0.325-1.615c-0.049-0.084-0.098-0.114-0.146-0.114c-0.073,0-0.144,0.07-0.211,0.129 c-0.278,0.24-0.551,0.485-0.829,0.725c-0.071,0.062-0.15,0.138-0.241,0.138c-0.032,0-0.065-0.01-0.1-0.033 c-0.122-0.083-0.075-0.235-0.066-0.359c0.016-0.253,0.133-0.447,0.341-0.597c0.295-0.212,0.588-0.428,0.872-0.655 c0.365-0.292,0.589-1.195,0.409-1.61c-0.05-0.115-0.103-0.155-0.155-0.155c-0.084,0-0.168,0.104-0.239,0.158 c-0.288,0.224-0.554,0.476-0.845,0.695c-0.062,0.046-0.132,0.146-0.221,0.146c-0.033,0-0.068-0.014-0.106-0.048 c-0.108-0.099-0.082-0.246-0.042-0.368c0.12-0.369,0.421-0.583,0.729-0.772c0.662-0.406,1.023-0.931,0.878-1.755 c-0.039-0.218-0.081-0.325-0.168-0.325c-0.059,0-0.138,0.049-0.251,0.145c-0.26,0.222-0.532,0.43-0.804,0.638 c-0.095,0.073-0.179,0.115-0.244,0.115c-0.093,0-0.149-0.085-0.148-0.29c0.009-1.924-0.178-3.877,0.087-5.765 c0.249-1.774,1.139-3.402,2.239-4.866c0.546-0.727,1.232-1.301,1.944-1.848c0.136-0.104,0.262-0.171,0.371-0.171 c0.141,0,0.252,0.112,0.318,0.401c0.441,1.951,0.91,3.896,1.36,5.845c0.301,1.303,0.148,2.628,0.15,3.943 c0.009,4.498-0.006,8.996-0.026,13.494c-0.002,0.4,0.112,0.604,0.465,0.604c0.04,0,0.083-0.003,0.129-0.008 c0.063-0.007,0.128-0.011,0.193-0.011c0.066,0,0.132,0.004,0.196,0.015c0.033,0.005,0.068,0.007,0.104,0.007 c0.156,0,0.329-0.041,0.484-0.041c0.172,0,0.322,0.05,0.402,0.26C41.26,72.52,41.282,73.075,40.944,73.568z"/></svg>