<?xml version="1.0" encoding="iso-8859-1"?>
<!-- Uploaded to: SVG Repo, www.svgrepo.com, Generator: SVG Repo Mixer Tools -->
<svg fill="#000000" height="800px" width="800px" version="1.1" id="Layer_1" xmlns="http://www.w3.org/2000/svg" xmlns:xlink="http://www.w3.org/1999/xlink" 
	 viewBox="0 0 512 512" xml:space="preserve">
<g>
	<g>
		<path d="M58.525,0v101.355h394.951V0H58.525z M332.633,78.482h-23.51v-23.51h23.51V78.482z M376.435,78.482h-23.51v-23.51h23.51
			V78.482z"/>
	</g>
</g>
<g>
	<g>
		<path d="M256,205.427c-47.825,0-86.727,38.902-86.727,86.727c0,47.825,38.902,86.727,86.727,86.727s86.727-38.902,86.727-86.727
			C342.726,244.328,303.825,205.427,256,205.427z"/>
	</g>
</g>
<g>
	<g>
		<path d="M58.525,132.702V512h394.951V132.702H58.525z M137.926,292.154c0-65.108,52.966-118.074,118.073-118.074
			s118.073,52.966,118.073,118.074c0,65.108-52.966,118.073-118.073,118.073S137.926,357.261,137.926,292.154z M392.307,457.153
			h-55.265v-37.115h55.265V457.153z"/>
	</g>
</g>
</svg>